<?xml version="1.0" standalone="no"?>
<!DOCTYPE svg PUBLIC "-//W3C//DTD SVG 20010904//EN"
 "http://www.w3.org/TR/2001/REC-SVG-20010904/DTD/svg10.dtd">
<svg version="1.0" xmlns="http://www.w3.org/2000/svg"
 width="592.000000pt" height="592.000000pt" viewBox="0 0 592.000000 592.000000"
 preserveAspectRatio="xMidYMid meet">
<metadata>
Created by potrace 1.14, written by Peter Selinger 2001-2017
</metadata>
<g transform="translate(0.000000,592.000000) scale(0.100000,-0.100000)"
fill="#000000" stroke="none">
<path d="M1300 5630 l0 -270 100 0 100 0 0 170 0 170 1308 -1 c1425 -1 1419 0
1590 -58 540 -181 893 -668 896 -1236 1 -126 -5 -212 -18 -270 -2 -11 -9 -42
-16 -70 -13 -61 -57 -191 -75 -225 -8 -14 -21 -41 -30 -60 -8 -20 -41 -75 -73
-122 -188 -284 -472 -483 -847 -594 l-80 -24 -657 0 -658 0 0 -100 0 -100 664
0 c551 0 677 -3 743 -15 246 -47 468 -174 635 -365 385 -438 476 -1157 212
-1682 -67 -134 -109 -193 -218 -300 -150 -149 -368 -255 -593 -287 -41 -6
-602 -10 -1425 -10 l-1358 -1 0 160 0 160 -100 0 -100 0 0 -250 0 -250 1524 0
c1308 0 1535 2 1595 15 428 90 774 405 929 847 28 80 70 241 78 303 23 174 23
414 -1 545 -2 14 -7 41 -9 60 -10 78 -59 256 -87 317 -10 24 -19 47 -19 53 0
20 -109 226 -157 296 -72 106 -109 150 -202 241 -101 99 -197 167 -327 232
l-95 48 58 26 c311 144 577 390 731 677 72 135 143 338 158 455 3 28 8 54 11
59 9 14 12 319 3 376 -4 30 -11 75 -14 100 -9 58 -44 191 -68 255 -10 27 -20
54 -21 60 -9 40 -160 312 -186 335 -4 3 -19 23 -35 45 -29 39 -182 195 -221
225 -11 9 -42 31 -70 50 -27 19 -55 40 -62 46 -27 26 -234 124 -330 158 -215
74 -111 70 -1730 73 l-1453 4 0 -271z"/>
<path d="M420 3020 l0 -2280 100 0 100 0 0 2280 0 2280 -100 0 -100 0 0 -2280z"/>
<path d="M2237 4159 l-1137 -1139 1140 -1140 1140 -1140 71 71 71 72 -1068
1068 -1069 1069 1069 1069 1069 1069 -72 71 c-39 39 -72 71 -74 70 -1 0 -514
-513 -1140 -1140z"/>
</g>
</svg>
